<?xml version="1.0" encoding="UTF-8"?>
<svg xmlns="http://www.w3.org/2000/svg" xmlns:xlink="http://www.w3.org/1999/xlink" viewBox="0 0 25 25" width="25px" height="25px">
<g id="surface140414408">
<rect x="0" y="0" width="25" height="25" style="fill:rgb(0%,0%,0%);fill-opacity:1;stroke:none;"/>
<path style=" stroke:none;fill-rule:nonzero;fill:rgb(76.862746%,76.862746%,76.862746%);fill-opacity:1;" d="M 23.332031 5.78125 C 22.535156 6.136719 21.679688 6.375 20.78125 6.480469 C 21.699219 5.929688 22.402344 5.058594 22.734375 4.023438 C 21.875 4.53125 20.925781 4.902344 19.910156 5.101562 C 19.101562 4.238281 17.945312 3.695312 16.667969 3.695312 C 14.210938 3.695312 12.222656 5.6875 12.222656 8.140625 C 12.222656 8.488281 12.261719 8.828125 12.335938 9.152344 C 8.640625 8.96875 5.367188 7.199219 3.175781 4.507812 C 2.792969 5.164062 2.574219 5.929688 2.574219 6.746094 C 2.574219 8.285156 3.359375 9.648438 4.550781 10.445312 C 3.820312 10.421875 3.136719 10.222656 2.535156 9.886719 C 2.535156 9.90625 2.535156 9.925781 2.535156 9.945312 C 2.535156 12.097656 4.066406 13.894531 6.101562 14.300781 C 5.730469 14.402344 5.335938 14.457031 4.929688 14.457031 C 4.644531 14.457031 4.367188 14.429688 4.09375 14.378906 C 4.660156 16.144531 6.300781 17.429688 8.246094 17.464844 C 6.726562 18.660156 4.808594 19.371094 2.726562 19.371094 C 2.367188 19.371094 2.015625 19.347656 1.664062 19.308594 C 3.632812 20.566406 5.96875 21.304688 8.480469 21.304688 C 16.65625 21.304688 21.125 14.53125 21.125 8.65625 C 21.125 8.464844 21.121094 8.273438 21.113281 8.082031 C 21.984375 7.453125 22.738281 6.671875 23.332031 5.78125 Z M 23.332031 5.78125 "/>
</g>
</svg>
